{
  "accessors": [
    {
      "bufferView": 2,
      "componentType": 5126,
      "count": 1024,
      "max": [
        0.8579272627830505,
        8.921334266662598,
        0.9191079139709473
      ],
      "min": [
        -0.9286647439002991,
        -3.965217113494873,
        -0.8674843311309814
      ],
      "type": "VEC3"
    },
    {
      "bufferView": 2,
      "byteOffset": 12288,
      "componentType": 5126,
      "count": 1024,
      "max": [
        0.9238795638084412,
        1.0,
        0.9238797426223755
      ],
      "min": [
        -0.9238796234130859,
        -1.0,
        -0.9238796234130859
      ],
      "type": "VEC3"
    },
    {
      "bufferView": 1,
      "componentType": 5126,
      "count": 1024,
      "max": [
        1.001304268836975,
        1.0000739097595215
      ],
      "min": [
        0.0002692680573090911,
        0.8749251961708069
      ],
      "type": "VEC2"
    },
    {
      "bufferView": 0,
      "componentType": 5125,
      "count": 1536,
      "type": "SCALAR"
    },
    {
      "bufferView": 2,
      "byteOffset": 24576,
      "componentType": 5126,
      "count": 1371,
      "max": [
        3.830606460571289,
        8.711915969848633,
        4.9333319664001465
      ],
      "min": [
        -1.0112359523773193,
        -3.515219211578369,
        -4.9333319664001465
      ],
      "type": "VEC3"
    },
    {
      "bufferView": 2,
      "byteOffset": 41028,
      "componentType": 5126,
      "count": 1371,
      "max": [
        1.0,
        0.8636212348937988,
        1.0
      ],
      "min": [
        -1.0,
        -1.0,
        -1.0
      ],
      "type": "VEC3"
    },
    {
      "bufferView": 1,
      "byteOffset": 8192,
      "componentType": 5126,
      "count": 1371,
      "max": [
        0.9827275276184082,
        0.9751853346824646
      ],
      "min": [
        0.0,
        0.0
      ],
      "type": "VEC2"
    },
    {
      "bufferView": 0,
      "byteOffset": 6144,
      "componentType": 5125,
      "count": 2226,
      "type": "SCALAR"
    },
    {
      "bufferView": 2,
      "byteOffset": 57480,
      "componentType": 5126,
      "count": 160,
      "max": [
        1.1168736219406128,
        6.26418924331665,
        1.3220123052597046
      ],
      "min": [
        -1.5271509885787964,
        -6.306764125823975,
        -1.3220123052597046
      ],
      "type": "VEC3"
    },
    {
      "bufferView": 2,
      "byteOffset": 59400,
      "componentType": 5126,
      "count": 160,
      "max": [
        0.9238795638084412,
        1.0,
        0.9238795042037964
      ],
      "min": [
        -0.9238795042037964,
        -1.0,
        -0.9238795042037964
      ],
      "type": "VEC3"
    },
    {
      "bufferView": 1,
      "byteOffset": 19160,
      "componentType": 5126,
      "count": 160,
      "max": [
        0.36747556924819946,
        0.7413050532341003
      ],
      "min": [
        0.25674182176589966,
        0.6305712461471558
      ],
      "type": "VEC2"
    },
    {
      "bufferView": 0,
      "byteOffset": 15048,
      "componentType": 5125,
      "count": 240,
      "type": "SCALAR"
    },
    {
      "bufferView": 2,
      "byteOffset": 61320,
      "componentType": 5126,
      "count": 1024,
      "max": [
        0.8579272627830505,
        8.921334266662598,
        0.8674843311309814
      ],
      "min": [
        -0.9286647439002991,
        -3.965217113494873,
        -0.9191079139709473
      ],
      "type": "VEC3"
    },
    {
      "bufferView": 2,
      "byteOffset": 73608,
      "componentType": 5126,
      "count": 1024,
      "max": [
        0.9238795638084412,
        1.0,
        0.9238797426223755
      ],
      "min": [
        -0.9238796234130859,
        -1.0,
        -0.9238797426223755
      ],
      "type": "VEC3"
    },
    {
      "bufferView": 1,
      "byteOffset": 20440,
      "componentType": 5126,
      "count": 1024,
      "max": [
        1.001304268836975,
        1.0000739097595215
      ],
      "min": [
        0.0002692680573090911,
        0.8749251961708069
      ],
      "type": "VEC2"
    },
    {
      "bufferView": 0,
      "byteOffset": 16008,
      "componentType": 5125,
      "count": 1536,
      "type": "SCALAR"
    }
  ],
  "asset": {
    "extras": {
      "author": "durvesh123 (https://sketchfab.com/durvesh123)",
      "license": "CC-BY-4.0 (http://creativecommons.org/licenses/by/4.0/)",
      "source": "https://sketchfab.com/3d-models/space-shuttle-3d94c44b36564ffcaea1d02dff6a4c74",
      "title": "SPACE SHUTTLE"
    },
    "generator": "Sketchfab-11.64.0",
    "version": "2.0"
  },
  "bufferViews": [
    {
      "buffer": 0,
      "byteLength": 22152,
      "name": "floatBufferViews",
      "target": 34963
    },
    {
      "buffer": 0,
      "byteLength": 28632,
      "byteOffset": 22152,
      "byteStride": 8,
      "name": "floatBufferViews",
      "target": 34962
    },
    {
      "buffer": 0,
      "byteLength": 85896,
      "byteOffset": 50784,
      "byteStride": 12,
      "name": "floatBufferViews",
      "target": 34962
    }
  ],
  "buffers": [
    {
      "byteLength": 136680,
      "uri": "scene.bin"
    }
  ],
  "images": [
    {
      "uri": "textures/Material_baseColor.png"
    }
  ],
  "materials": [
    {
      "doubleSided": true,
      "name": "Material",
      "pbrMetallicRoughness": {
        "baseColorTexture": {
          "index": 0
        },
        "metallicFactor": 0.0,
        "roughnessFactor": 0.40353357251138666
      }
    }
  ],
  "meshes": [
    {
      "name": "Object_0",
      "primitives": [
        {
          "attributes": {
            "NORMAL": 1,
            "POSITION": 0,
            "TEXCOORD_0": 2
          },
          "indices": 3,
          "material": 0,
          "mode": 4
        }
      ]
    },
    {
      "name": "Object_1",
      "primitives": [
        {
          "attributes": {
            "NORMAL": 5,
            "POSITION": 4,
            "TEXCOORD_0": 6
          },
          "indices": 7,
          "material": 0,
          "mode": 4
        }
      ]
    },
    {
      "name": "Object_2",
      "primitives": [
        {
          "attributes": {
            "NORMAL": 9,
            "POSITION": 8,
            "TEXCOORD_0": 10
          },
          "indices": 11,
          "material": 0,
          "mode": 4
        }
      ]
    },
    {
      "name": "Object_3",
      "primitives": [
        {
          "attributes": {
            "NORMAL": 13,
            "POSITION": 12,
            "TEXCOORD_0": 14
          },
          "indices": 15,
          "material": 0,
          "mode": 4
        }
      ]
    }
  ],
  "nodes": [
    {
      "children": [
        1
      ],
      "matrix": [
        1.0,
        0.0,
        0.0,
        0.0,
        0.0,
        2.220446049250313e-16,
        -1.0,
        0.0,
        0.0,
        1.0,
        2.220446049250313e-16,
        0.0,
        0.0,
        0.0,
        0.0,
        1.0
      ],
      "name": "Sketchfab_model"
    },
    {
      "children": [
        2
      ],
      "name": "root"
    },
    {
      "children": [
        3,
        5,
        7,
        9
      ],
      "matrix": [
        1.0,
        0.0,
        0.0,
        0.0,
        0.0,
        2.220446049250313e-16,
        1.0,
        0.0,
        0.0,
        -1.0,
        2.220446049250313e-16,
        0.0,
        0.0,
        0.0,
        0.0,
        1.0
      ],
      "name": "GLTF_SceneRootNode"
    },
    {
      "children": [
        4
      ],
      "matrix": [
        1.0,
        0.0,
        0.0,
        0.0,
        0.0,
        1.0,
        0.0,
        0.0,
        0.0,
        0.0,
        1.0,
        0.0,
        1.6878005266189575,
        -4.65560245513916,
        2.2201757431030273,
        1.0
      ],
      "name": "SIDE THRUSTER(LEFT)_0"
    },
    {
      "mesh": 0,
      "name": "Object_4"
    },
    {
      "children": [
        6
      ],
      "matrix": [
        1.0,
        0.0,
        0.0,
        0.0,
        0.0,
        1.0,
        0.0,
        0.0,
        0.0,
        0.0,
        1.0,
        0.0,
        4.024299144744873,
        -4.692934036254883,
        0.0,
        1.0
      ],
      "name": "SPACE SHUTTLE_3"
    },
    {
      "mesh": 1,
      "name": "Object_6"
    },
    {
      "children": [
        8
      ],
      "matrix": [
        1.0,
        0.0,
        0.0,
        0.0,
        0.0,
        1.0,
        0.0,
        0.0,
        0.0,
        0.0,
        1.0,
        0.0,
        1.8599499464035034,
        0.3933444321155548,
        0.0,
        1.0
      ],
      "name": "ROCKET BODY_4"
    },
    {
      "mesh": 2,
      "name": "Object_8"
    },
    {
      "children": [
        10
      ],
      "matrix": [
        1.0,
        0.0,
        0.0,
        0.0,
        0.0,
        1.0,
        0.0,
        0.0,
        0.0,
        0.0,
        1.0,
        0.0,
        1.687800645828247,
        -4.655601978302002,
        -2.2201757431030273,
        1.0
      ],
      "name": "SIDE THRUSTER (RIGHT)_5"
    },
    {
      "mesh": 3,
      "name": "Object_10"
    }
  ],
  "samplers": [
    {
      "magFilter": 9729,
      "minFilter": 9987,
      "wrapS": 10497,
      "wrapT": 10497
    }
  ],
  "scene": 0,
  "scenes": [
    {
      "name": "Sketchfab_Scene",
      "nodes": [
        0
      ]
    }
  ],
  "textures": [
    {
      "sampler": 0,
      "source": 0
    }
  ]
}
