{
  "accessors": [
    {
      "bufferView": 2,
      "componentType": 5126,
      "count": 24874,
      "max": [
        162.42408752441406,
        76.68174743652344,
        415.0556335449219
      ],
      "min": [
        -158.93800354003906,
        0.3707275390625,
        93.69355773925781
      ],
      "type": "VEC3"
    },
    {
      "bufferView": 2,
      "byteOffset": 298488,
      "componentType": 5126,
      "count": 24874,
      "max": [
        1.0,
        1.0,
        1.0
      ],
      "min": [
        -1.0,
        -1.0,
        -1.0
      ],
      "type": "VEC3"
    },
    {
      "bufferView": 1,
      "componentType": 5126,
      "count": 24874,
      "max": [
        0.9912109375,
        0.9946823120117188
      ],
      "min": [
        0.006381988525390625,
        0.00537109375
      ],
      "type": "VEC2"
    },
    {
      "bufferView": 0,
      "componentType": 5125,
      "count": 25848,
      "type": "SCALAR"
    },
    {
      "bufferView": 2,
      "byteOffset": 596976,
      "componentType": 5126,
      "count": 804,
      "max": [
        111.90374755859375,
        73.35441589355469,
        363.4733581542969
      ],
      "min": [
        -108.41767883300781,
        64.01274108886719,
        145.27581787109375
      ],
      "type": "VEC3"
    },
    {
      "bufferView": 2,
      "byteOffset": 606624,
      "componentType": 5126,
      "count": 804,
      "max": [
        0.909191370010376,
        0.9378305673599243,
        0.9231835603713989
      ],
      "min": [
        -0.90919029712677,
        -0.4785333275794983,
        -0.923183023929596
      ],
      "type": "VEC3"
    },
    {
      "bufferView": 1,
      "byteOffset": 198992,
      "componentType": 5126,
      "count": 804,
      "max": [
        0.96337890625,
        0.946319580078125
      ],
      "min": [
        0.0384521484375,
        0.068359375
      ],
      "type": "VEC2"
    },
    {
      "bufferView": 0,
      "byteOffset": 103392,
      "componentType": 5125,
      "count": 804,
      "type": "SCALAR"
    }
  ],
  "asset": {
    "extras": {
      "author": "johnroast (https://sketchfab.com/johnroast)",
      "license": "CC-BY-4.0 (http://creativecommons.org/licenses/by/4.0/)",
      "source": "https://sketchfab.com/3d-models/launch-pad-fortnite-d7362fa3c643464e8f14fbb70f175dc3",
      "title": "Launch Pad - Fortnite"
    },
    "generator": "Sketchfab-10.65.0",
    "version": "2.0"
  },
  "bufferViews": [
    {
      "buffer": 0,
      "byteLength": 106608,
      "name": "floatBufferViews",
      "target": 34963
    },
    {
      "buffer": 0,
      "byteLength": 205424,
      "byteOffset": 106608,
      "byteStride": 8,
      "name": "floatBufferViews",
      "target": 34962
    },
    {
      "buffer": 0,
      "byteLength": 616272,
      "byteOffset": 312032,
      "byteStride": 12,
      "name": "floatBufferViews",
      "target": 34962
    }
  ],
  "buffers": [
    {
      "byteLength": 928304,
      "uri": "scene.bin"
    }
  ],
  "materials": [
    {
      "doubleSided": true,
      "name": "M_VTech_Trampoline"
    },
    {
      "doubleSided": true,
      "name": "M_VTechLogo_Glow"
    }
  ],
  "meshes": [
    {
      "name": "Object_0",
      "primitives": [
        {
          "attributes": {
            "NORMAL": 1,
            "POSITION": 0,
            "TEXCOORD_0": 2
          },
          "indices": 3,
          "material": 0,
          "mode": 4
        }
      ]
    },
    {
      "name": "Object_1",
      "primitives": [
        {
          "attributes": {
            "NORMAL": 5,
            "POSITION": 4,
            "TEXCOORD_0": 6
          },
          "indices": 7,
          "material": 1,
          "mode": 4
        }
      ]
    }
  ],
  "nodes": [
    {
      "children": [
        1
      ],
      "matrix": [
        1.0,
        0.0,
        0.0,
        0.0,
        0.0,
        2.220446049250313e-16,
        -1.0,
        0.0,
        0.0,
        1.0,
        2.220446049250313e-16,
        0.0,
        0.0,
        0.0,
        0.0,
        1.0
      ],
      "name": "Sketchfab_model"
    },
    {
      "children": [
        2
      ],
      "name": "root"
    },
    {
      "children": [
        3
      ],
      "matrix": [
        1.0,
        0.0,
        0.0,
        0.0,
        0.0,
        2.220446049250313e-16,
        1.0,
        0.0,
        0.0,
        -1.0,
        2.220446049250313e-16,
        0.0,
        0.0,
        0.0,
        0.0,
        1.0
      ],
      "name": "GLTF_SceneRootNode"
    },
    {
      "children": [
        4,
        5
      ],
      "matrix": [
        0.010999977588653564,
        0.0,
        0.0,
        0.0,
        0.0,
        0.010999977588653564,
        0.0,
        0.0,
        0.0,
        0.0,
        0.010999977588653564,
        0.0,
        0.0,
        0.0,
        -2.749011754989624,
        1.0
      ],
      "name": "S_Athena_Launchpad.mo_0"
    },
    {
      "mesh": 0,
      "name": "Object_4"
    },
    {
      "mesh": 1,
      "name": "Object_5"
    }
  ],
  "scene": 0,
  "scenes": [
    {
      "name": "Sketchfab_Scene",
      "nodes": [
        0
      ]
    }
  ]
}
