{
  "accessors": [
    {
      "bufferView": 1,
      "componentType": 5126,
      "count": 1217,
      "max": [
        0.95105785131454468,
        0.99999994039535522,
        0.92532718181610107
      ],
      "min": [
        -0.95105785131454468,
        -0.99999994039535522,
        -0.92532587051391602
      ],
      "type": "VEC3"
    },
    {
      "bufferView": 1,
      "byteOffset": 14604,
      "componentType": 5126,
      "count": 1217,
      "max": [
        0.99207741022109985,
        0.94352227449417114,
        0.94352340698242188
      ],
      "min": [
        -0.99207741022109985,
        -0.94352167844772339,
        -0.94352275133132935
      ],
      "type": "VEC3"
    },
    {
      "bufferView": 0,
      "componentType": 5125,
      "count": 1365,
      "max": [
        1216
      ],
      "min": [
        0
      ],
      "type": "SCALAR"
    },
    {
      "bufferView": 1,
      "byteOffset": 29208,
      "componentType": 5126,
      "count": 242,
      "max": [
        0.52586960792541504,
        0.50116926431655884,
        1.0244865417480469
      ],
      "min": [
        -0.42532268166542053,
        -0.49999526143074036,
        -1.0246753692626953
      ],
      "type": "VEC3"
    },
    {
      "bufferView": 1,
      "byteOffset": 32112,
      "componentType": 5126,
      "count": 242,
      "max": [
        0.99835336208343506,
        0.95094877481460571,
        0.94352400302886963
      ],
      "min": [
        -0.99998378753662109,
        -0.95089262723922729,
        -0.94352394342422485
      ],
      "type": "VEC3"
    },
    {
      "bufferView": 0,
      "byteOffset": 5460,
      "componentType": 5125,
      "count": 309,
      "max": [
        241
      ],
      "min": [
        0
      ],
      "type": "SCALAR"
    },
    {
      "bufferView": 1,
      "byteOffset": 35016,
      "componentType": 5126,
      "count": 756,
      "max": [
        0.97447031736373901,
        0.98900240659713745,
        0.6566307544708252
      ],
      "min": [
        -0.98142009973526001,
        -1.0268639326095581,
        -0.53401726484298706
      ],
      "type": "VEC3"
    },
    {
      "bufferView": 1,
      "byteOffset": 44088,
      "componentType": 5126,
      "count": 756,
      "max": [
        0.99207741022109985,
        0.98198145627975464,
        0.99207782745361328
      ],
      "min": [
        -0.99207741022109985,
        -0.95795732736587524,
        -0.98254817724227905
      ],
      "type": "VEC3"
    },
    {
      "bufferView": 0,
      "byteOffset": 6696,
      "componentType": 5125,
      "count": 1023,
      "max": [
        755
      ],
      "min": [
        0
      ],
      "type": "SCALAR"
    }
  ],
  "asset": {
    "extras": {
      "author": "bokoblind (https://sketchfab.com/rx0kamiki)",
      "license": "CC-BY-4.0 (http://creativecommons.org/licenses/by/4.0/)",
      "source": "https://sketchfab.com/3d-models/lowpoly-earth-ac8f59369cbe457bb1331e88f13d61af",
      "title": "Lowpoly earth"
    },
    "generator": "Sketchfab-8.72.3",
    "version": "2.0"
  },
  "bufferViews": [
    {
      "buffer": 0,
      "byteLength": 10788,
      "byteOffset": 0,
      "name": "floatBufferViews",
      "target": 34963
    },
    {
      "buffer": 0,
      "byteLength": 53160,
      "byteOffset": 10788,
      "byteStride": 12,
      "name": "floatBufferViews",
      "target": 34962
    }
  ],
  "buffers": [
    {
      "byteLength": 63948,
      "uri": "scene.bin"
    }
  ],
  "materials": [
    {
      "doubleSided": true,
      "emissiveFactor": [
        0,
        0,
        0
      ],
      "name": "Material.004",
      "pbrMetallicRoughness": {
        "baseColorFactor": [
          0.108776,
          0.60682400000000003,
          0.80000000000000004,
          1
        ],
        "metallicFactor": 0,
        "roughnessFactor": 0.88486792271500869
      }
    },
    {
      "doubleSided": true,
      "emissiveFactor": [
        0,
        0,
        0
      ],
      "name": "Material.005",
      "pbrMetallicRoughness": {
        "baseColorFactor": [
          0.80000000000000004,
          0.80000000000000004,
          0.80000000000000004,
          1
        ],
        "metallicFactor": 0,
        "roughnessFactor": 0.82111456180001685
      }
    },
    {
      "doubleSided": true,
      "emissiveFactor": [
        0,
        0,
        0
      ],
      "name": "Material.006",
      "pbrMetallicRoughness": {
        "baseColorFactor": [
          0.116892,
          0.80000000000000004,
          0.084751300000000002,
          1
        ],
        "metallicFactor": 0,
        "roughnessFactor": 0.86513596877891508
      }
    }
  ],
  "meshes": [
    {
      "name": "Icosphere.001_Material.004_0",
      "primitives": [
        {
          "attributes": {
            "NORMAL": 1,
            "POSITION": 0
          },
          "indices": 2,
          "material": 0,
          "mode": 4
        }
      ]
    },
    {
      "name": "Icosphere.001_Material.005_0",
      "primitives": [
        {
          "attributes": {
            "NORMAL": 4,
            "POSITION": 3
          },
          "indices": 5,
          "material": 1,
          "mode": 4
        }
      ]
    },
    {
      "name": "Icosphere.001_Material.006_0",
      "primitives": [
        {
          "attributes": {
            "NORMAL": 7,
            "POSITION": 6
          },
          "indices": 8,
          "material": 2,
          "mode": 4
        }
      ]
    }
  ],
  "nodes": [
    {
      "children": [
        1
      ],
      "name": "RootNode (gltf orientation matrix)",
      "rotation": [
        -0.70710678118654746,
        -0,
        -0,
        0.70710678118654757
      ]
    },
    {
      "children": [
        2
      ],
      "name": "RootNode (model correction matrix)"
    },
    {
      "children": [
        3
      ],
      "matrix": [
        1,
        0,
        0,
        0,
        0,
        0,
        1,
        0,
        0,
        -1,
        0,
        0,
        0,
        0,
        0,
        1
      ],
      "name": "0f5c89becae84f5d8a9b09e4493aaefe.fbx"
    },
    {
      "children": [
        4
      ],
      "name": "RootNode"
    },
    {
      "children": [
        5,
        6,
        7
      ],
      "matrix": [
        287.43276977539062,
        0,
        0,
        0,
        -0,
        -4.6828742131282507e-05,
        -287.43276977538682,
        0,
        0,
        287.43276977538682,
        -4.6828742131282507e-05,
        0,
        -60.976409912109375,
        141.46975708007812,
        49.562294006347656,
        1
      ],
      "name": "Icosphere.001"
    },
    {
      "mesh": 0,
      "name": "Icosphere.001_Material.004_0"
    },
    {
      "mesh": 1,
      "name": "Icosphere.001_Material.005_0"
    },
    {
      "mesh": 2,
      "name": "Icosphere.001_Material.006_0"
    }
  ],
  "scene": 0,
  "scenes": [
    {
      "name": "OSG_Scene",
      "nodes": [
        0
      ]
    }
  ]
}

